# xmcd CD database file
#
# Track frame offsets:
#	150
#	12782
#	22710
#	35905
#	55343
#	68639
#	80124
#	94159
#	108579
#	120386
#	134629
#	145386
#	159539
#	169575
#	183808
#	198791
#	212844
#	225672
#
# Disc length: 3165 seconds
#
# Revision: 0
# Processed by: cddbd v1.5.1PL0 Copyright (c) Steve Scherf et al.
# Submitted via: CDex 1.51
#
DISCID=f30c5b12
DTITLE=Judy Garland - Over The Rainbow
DYEAR=1900
DGENRE=Jazz
TTITLE0=Over The Rainbow
TTITLE1=Swansee
TTITLE2=Fascinating Rythm
TTITLE3=Sweet Sixteen
TTITLE4=Zing! When The Strings Of My Heart
TTITLE5=Cry Baby Cry
TTITLE6=Swing Mister Charly
TTITLE7=You Made Me Love You
TTITLE8=Friendship
TTITLE9=Poor Little Rich Girl
TTITLE10=I Never Knew
TTITLE11=Bidin' My Time
TTITLE12=Meet Me In Saint Louis
TTITLE13=Yah-Ta Ta
TTITLE14=You'll Never Walk Alone
TTITLE15=All God's Chillun Got Rythm
TTITLE16=The Trolley Song
TTITLE17=When You Wore A Tulip
EXTD=
EXTT0=
EXTT1=
EXTT2=
EXTT3=
EXTT4=
EXTT5=
EXTT6=
EXTT7=
EXTT8=
EXTT9=
EXTT10=
EXTT11=
EXTT12=
EXTT13=
EXTT14=
EXTT15=
EXTT16=
EXTT17=
PLAYORDER=
